<svg xmlns="http://www.w3.org/2000/svg" version="1.1" xmlns:xlink="http://www.w3.org/1999/xlink" xmlns:svgjs="http://svgjs.dev/svgjs" width="100%" height="100%" viewBox="0 0 1000 600"><rect width="1000" height="600" x="0" y="0" fill="#2d55a6"/><g><rect width="333.3333333333333" height="333.3333333333333" y="187.87099024914576" fill="#f2f2f2" transform="matrix(0.7546088530706249,0,0,0.7546088530706249,0,32.46276811538576)" x="165.64877319335938"/><path d="M377.99818797407556 429.5376500218809L363.6985196865661 390.38937782492894L300.8444449392144 390.38937782492894L286.74989484435366 429.5376500218809L266.32598337633306 429.5376500218809L323.6125643232201 279.5376459977813L340.9304003025604 279.5376459977813L398.30488904629686 429.5376500218809L377.99818797407556 429.5376500218809ZM332.2568310134153 303.94671092297665L306.8221751249765 374.126435407782L357.80869729765345 374.126435407782L332.2568310134153 303.94671092297665Z " fill="#2d55a6" transform="matrix(0.7546088530706249,0,0,0.7546088530706249,0,32.46276811538576)"/><path d="M665.609920534438 397.5618386035573L654.9440305549138 368.36177915141747L608.0621985752432 368.36177915141747L597.5493029191957 397.5618386035573L582.3154395672934 397.5618386035573L625.0445684811658 285.6792754781801L637.9616606489911 285.6792754781801L680.7563585586392 397.5618386035573L665.609920534438 397.5618386035573ZM631.4921863991159 303.88559997191703L612.520890287995 356.2315149329013L650.5509078379378 356.2315149329013L631.4921863991159 303.88559997191703ZM763.8104198746059 355.5976813070689L763.8104198746059 356.90906122258417Q763.8104198746059 375.9022136656302 755.13345610028 387.48606958601505Q746.456492325954 399.0917818383251 731.6160429487062 399.0917818383251L731.6160429487062 399.0917818383251Q716.4914612564302 399.0917818383251 707.792641150179 389.49685212313847L707.792641150179 389.49685212313847L707.792641150179 429.5376522102045L693.5860253987636 429.5376522102045L693.5860253987636 314.4203519598896L706.5686865623646 314.4203519598896L707.2680891839728 323.643724032347Q715.9450529582988 312.8904087251218 731.3974796294536 312.8904087251218L731.3974796294536 312.8904087251218Q746.369066998253 312.8904087251218 755.0897434364294 324.1901323304783Q763.8104198746059 335.4679996039096 763.8104198746059 355.5976813070689L763.8104198746059 355.5976813070689ZM749.6038041231906 355.2916926601153L749.6038041231906 355.2916926601153Q749.6038041231906 341.23807123217676 743.6151691756709 333.08565942405687Q737.6265342281512 324.95510394786226 727.1573512359544 324.95510394786226L727.1573512359544 324.95510394786226Q714.2621154000542 324.95510394786226 707.792641150179 336.40782187669555L707.792641150179 336.40782187669555L707.792641150179 376.12077698488275Q714.1746900723532 387.48606958601505 727.3103455594311 387.48606958601505L727.3103455594311 387.48606958601505Q737.5391089004502 387.48606958601505 743.5714565118203 379.39922677367093Q749.6038041231906 371.29052762940154 749.6038041231906 355.2916926601153ZM822.0575444554089 313.9613689894593L822.0575444554089 327.18444980423817Q818.8446636623964 326.63804150610684 815.0635182393274 326.63804150610684L815.0635182393274 326.63804150610684Q801.0754658071646 326.63804150610684 796.0922221282067 338.54974240537047L796.0922221282067 338.54974240537047L796.0922221282067 397.5618386035573L781.8856063767913 397.5618386035573L781.8856063767913 314.4203519598896L795.6988081535521 314.4203519598896L795.9392278047299 324.03713800700154Q802.9332540208113 312.8904087251218 815.7629208609357 312.8904087251218L815.7629208609357 312.8904087251218Q819.9156239267339 312.8904087251218 822.0575444554089 313.9613689894593L822.0575444554089 313.9613689894593ZM868.1744048176956 399.0917818383251L868.1744048176956 399.0917818383251Q851.2576039075486 399.0917818383251 840.6572829238003 387.9887652202959Q830.0569619400519 376.8857486022667 830.0569619400519 358.30786646580043L830.0569619400519 358.30786646580043L830.0569619400519 355.6851066347699Q830.0569619400519 343.3144227650759 834.777929635907 333.58835505833775Q839.4988973317618 323.88414368352477 848.0010104506858 318.3763480383607Q856.4812672376845 312.8904087251218 866.40404193175 312.8904087251218L866.40404193175 312.8904087251218Q882.6214402202887 312.8904087251218 891.6043926415683 323.55629870464594Q900.5873450628478 334.24404501609536 900.5873450628478 354.1551634000021L900.5873450628478 354.1551634000021L900.5873450628478 360.0563730198208L844.2635776914674 360.0563730198208Q844.5695663384208 372.361487893739 851.454310894876 379.92377873987704Q858.3390554513312 387.48606958601505 868.9393764350796 387.48606958601505L868.9393764350796 387.48606958601505Q876.457954617367 387.48606958601505 881.6816179475029 384.4261831164794Q886.9052812776387 381.3444403150186 890.8394210241843 376.2737713083595L890.8394210241843 376.2737713083595L899.5163847985104 383.0492342051884Q889.0690581382389 399.0917818383251 868.1744048176956 399.0917818383251ZM866.40404193175 324.56168997320765L866.40404193175 324.56168997320765Q857.7926471531998 324.56168997320765 851.9570065291568 330.8344572357557Q846.121365905114 337.08536816637843 844.7225606618977 348.38509177173495L844.7225606618977 348.38509177173495L886.3807293114326 348.38509177173495L886.3807293114326 347.31413150739746Q885.7687520175255 336.4733908724713 880.5450886873896 330.5284685888021Q875.3214253572537 324.56168997320765 866.40404193175 324.56168997320765ZM917.0451630025643 314.4203519598896L930.4868071365959 314.4203519598896L930.9457901070263 324.86767862016126Q940.4751508264371 312.8904087251218 955.8401521698909 312.8904087251218L955.8401521698909 312.8904087251218Q982.1988884717478 312.8904087251218 982.4174517910003 342.6150201434678L982.4174517910003 342.6150201434678L982.4174517910003 397.5618386035573L968.2108360395849 397.5618386035573L968.2108360395849 342.549451147692Q968.1234107118839 333.5446423944872 964.1018456376371 329.26080133713737Q960.0584242314651 324.95510394786226 951.5344547806158 324.95510394786226L951.5344547806158 324.95510394786226Q944.6278538922354 324.95510394786226 939.4041905620998 328.626967711305Q934.1586709000386 332.320687806673 931.2517787539798 338.3093227541927L931.2517787539798 338.3093227541927L931.2517787539798 397.5618386035573L917.0451630025643 397.5618386035573L917.0451630025643 314.4203519598896ZM1000.4052129654847 356.38450925637807L1000.4052129654847 355.2916926601153Q1000.4052129654847 336.1674022255177 1009.4755907144652 324.51797730935715Q1018.5459684634458 312.8904087251218 1033.2115671852914 312.8904087251218L1033.2115671852914 312.8904087251218Q1047.8115969113614 312.8904087251218 1056.3355663622106 322.87875241496306L1056.3355663622106 322.87875241496306L1056.3355663622106 279.5376462071836L1070.5640384455512 279.5376462071836L1070.5640384455512 397.5618386035573L1057.493951954249 397.5618386035573L1056.794549332641 388.64445517805353Q1048.2705798817917 399.0917818383251 1033.0585728618148 399.0917818383251L1033.0585728618148 399.0917818383251Q1018.6115374592216 399.0917818383251 1009.5193033783157 387.2675062667625Q1000.4052129654847 375.42137436327465 1000.4052129654847 356.38450925637807L1000.4052129654847 356.38450925637807ZM1014.6118287168999 356.90906122258417L1014.6118287168999 356.90906122258417Q1014.6118287168999 371.05010797822376 1020.4693256728681 379.0495254628668Q1026.304966296911 387.02708661558466 1036.599298633706 387.02708661558466L1036.599298633706 387.02708661558466Q1050.1283680954384 387.02708661558466 1056.3355663622106 374.89682239706855L1056.3355663622106 374.89682239706855L1056.3355663622106 336.7138105236491Q1049.9753737719616 324.95510394786226 1036.7522929571828 324.95510394786226L1036.7522929571828 324.95510394786226Q1026.304966296911 324.95510394786226 1020.4693256728681 333.0200904282811Q1014.6118287168999 341.0850769087 1014.6118287168999 356.90906122258417ZM1127.1063691361844 399.0917818383251L1127.1063691361844 399.0917818383251Q1110.2114245579626 399.0917818383251 1099.6111035742142 387.9887652202959Q1088.9889262585407 376.8857486022667 1088.9889262585407 358.30786646580043L1088.9889262585407 358.30786646580043L1088.9889262585407 355.6851066347699Q1088.9889262585407 343.3144227650759 1093.731750286321 333.58835505833775Q1098.4527179821757 323.88414368352477 1106.9329747691745 318.3763480383607Q1115.4350878880985 312.8904087251218 1125.3360062502388 312.8904087251218L1125.3360062502388 312.8904087251218Q1141.5534045387776 312.8904087251218 1150.536356960057 323.55629870464594Q1159.5411657132618 334.24404501609536 1159.5411657132618 354.1551634000021L1159.5411657132618 354.1551634000021L1159.5411657132618 360.0563730198208L1103.217398341881 360.0563730198208Q1103.5233869888348 372.361487893739 1110.40813154529 379.92377873987704Q1117.27101976982 387.48606958601505 1127.8713407535683 387.48606958601505L1127.8713407535683 387.48606958601505Q1135.411775267781 387.48606958601505 1140.6354385979168 384.4261831164794Q1145.8591019280525 381.3444403150186 1149.771385342673 376.2737713083595L1149.771385342673 376.2737713083595L1158.4702054489244 383.0492342051884Q1148.0010224567277 399.0917818383251 1127.1063691361844 399.0917818383251ZM1125.3360062502388 324.56168997320765L1125.3360062502388 324.56168997320765Q1116.7464678036138 324.56168997320765 1110.8889708476454 330.8344572357557Q1105.0533302236026 337.08536816637843 1103.6763813123116 348.38509177173495L1103.6763813123116 348.38509177173495L1145.3126936299213 348.38509177173495L1145.3126936299213 347.31413150739746Q1144.700716336014 336.4733908724713 1139.4770530058784 330.5284685888021Q1134.2533896757427 324.56168997320765 1125.3360062502388 324.56168997320765Z " fill="#f2f2f2" transform="matrix(0.7546088530706249,0,0,0.7546088530706249,0,32.46276811538576)"/></g></svg>